# xmcd CD database file
#
# Track frame offsets:
#	150
#	19722
#	38695
#	56090
#	74977
#	101925
#	120802
#	141030
#	160087
#	181190
#
# Disc length: 2862 seconds
#
# Revision: 0
# Processed by: cddbd v1.5PL3 Copyright (c) Steve Scherf et al.
# Submitted via: CDex 1.50beta8
#
DISCID=850b2c0a
DTITLE=SHOW-YA - TRADE LAST
DYEAR=1900
DGENRE=Rock
TTITLE0=雨のナイフ
TTITLE1=もうフレンドはいらない
TTITLE2=ヴィスコンティの肖像
TTITLE3=その後で殺したい
TTITLE4=サーモスタットの瞳
TTITLE5=ナルシスト
TTITLE6=夜が来るまで眠りたい
TTITLE7="Shitagokoro"が止まらない
TTITLE8=躁鬱なバレリーナ
TTITLE9=地下水道の月
EXTD=
EXTT0=
EXTT1=
EXTT2=
EXTT3=
EXTT4=
EXTT5=
EXTT6=
EXTT7=
EXTT8=
EXTT9=
PLAYORDER=
